<svg width="24" height="25" viewBox="0 0 24 25" fill="none" xmlns="http://www.w3.org/2000/svg">
<path d="M18 11.4316C17.59 11.4316 17.25 11.0916 17.25 10.6816V8.68164C17.25 5.53164 16.36 3.43164 12 3.43164C7.64 3.43164 6.75 5.53164 6.75 8.68164V10.6816C6.75 11.0916 6.41 11.4316 6 11.4316C5.59 11.4316 5.25 11.0916 5.25 10.6816V8.68164C5.25 5.78164 5.95 1.93164 12 1.93164C18.05 1.93164 18.75 5.78164 18.75 8.68164V10.6816C18.75 11.0916 18.41 11.4316 18 11.4316Z" fill="#757575"/>
<path d="M12 19.9316C10.21 19.9316 8.75 18.4716 8.75 16.6816C8.75 14.8916 10.21 13.4316 12 13.4316C13.79 13.4316 15.25 14.8916 15.25 16.6816C15.25 18.4716 13.79 19.9316 12 19.9316ZM12 14.9316C11.04 14.9316 10.25 15.7216 10.25 16.6816C10.25 17.6416 11.04 18.4316 12 18.4316C12.96 18.4316 13.75 17.6416 13.75 16.6816C13.75 15.7216 12.96 14.9316 12 14.9316Z" fill="#757575"/>
<path d="M17 23.4316H7C2.59 23.4316 1.25 22.0916 1.25 17.6816V15.6816C1.25 11.2716 2.59 9.93164 7 9.93164H17C21.41 9.93164 22.75 11.2716 22.75 15.6816V17.6816C22.75 22.0916 21.41 23.4316 17 23.4316ZM7 11.4316C3.42 11.4316 2.75 12.1116 2.75 15.6816V17.6816C2.75 21.2516 3.42 21.9316 7 21.9316H17C20.58 21.9316 21.25 21.2516 21.25 17.6816V15.6816C21.25 12.1116 20.58 11.4316 17 11.4316H7Z" fill="#757575"/>
</svg>
