<svg width="25" height="33" viewBox="0 0 25 33" fill="none" xmlns="http://www.w3.org/2000/svg">
<path d="M17.45 28.7627C16.32 28.7627 15.13 28.4927 13.9 27.9727C12.7 27.4627 11.49 26.7627 10.31 25.9127C9.14 25.0527 8.01 24.0927 6.94 23.0427C5.88 21.9727 4.92 20.8427 4.07 19.6827C3.21 18.4827 2.52 17.2827 2.03 16.1227C1.51 14.8827 1.25 13.6827 1.25 12.5527C1.25 11.7727 1.39 11.0327 1.66 10.3427C1.94 9.6327 2.39 8.9727 3 8.4027C3.77 7.6427 4.65 7.2627 5.59 7.2627C5.98 7.2627 6.38 7.3527 6.72 7.5127C7.11 7.6927 7.44 7.9627 7.68 8.3227L10 11.5927C10.21 11.8827 10.37 12.1627 10.48 12.4427C10.61 12.7427 10.68 13.0427 10.68 13.3327C10.68 13.7127 10.57 14.0827 10.36 14.4327C10.21 14.7027 9.98 14.9927 9.69 15.2827L9.01 15.9927C9.02 16.0227 9.03 16.0427 9.04 16.0627C9.16 16.2727 9.4 16.6327 9.86 17.1727C10.35 17.7327 10.81 18.2427 11.27 18.7127C11.86 19.2927 12.35 19.7527 12.81 20.1327C13.38 20.6127 13.75 20.8527 13.97 20.9627L13.95 21.0127L14.68 20.2927C14.99 19.9827 15.29 19.7527 15.58 19.6027C16.13 19.2627 16.83 19.2027 17.53 19.4927C17.79 19.6027 18.07 19.7527 18.37 19.9627L21.69 22.3227C22.06 22.5727 22.33 22.8927 22.49 23.2727C22.64 23.6527 22.71 24.0027 22.71 24.3527C22.71 24.8327 22.6 25.3127 22.39 25.7627C22.18 26.2127 21.92 26.6027 21.59 26.9627C21.02 27.5927 20.4 28.0427 19.68 28.3327C18.99 28.6127 18.24 28.7627 17.45 28.7627ZM5.59 8.7627C5.04 8.7627 4.53 9.0027 4.04 9.4827C3.58 9.9127 3.26 10.3827 3.06 10.8927C2.85 11.4127 2.75 11.9627 2.75 12.5527C2.75 13.4827 2.97 14.4927 3.41 15.5327C3.86 16.5927 4.49 17.6927 5.29 18.7927C6.09 19.8927 7 20.9627 8 21.9727C9 22.9627 10.08 23.8827 11.19 24.6927C12.27 25.4827 13.38 26.1227 14.48 26.5827C16.19 27.3127 17.79 27.4827 19.11 26.9327C19.62 26.7227 20.07 26.4027 20.48 25.9427C20.71 25.6927 20.89 25.4227 21.04 25.1027C21.16 24.8527 21.22 24.5927 21.22 24.3327C21.22 24.1727 21.19 24.0127 21.11 23.8327C21.08 23.7727 21.02 23.6627 20.83 23.5327L17.51 21.1727C17.31 21.0327 17.13 20.9327 16.96 20.8627C16.74 20.7727 16.65 20.6827 16.31 20.8927C16.11 20.9927 15.93 21.1427 15.73 21.3427L14.97 22.0927C14.58 22.4727 13.98 22.5627 13.52 22.3927L13.25 22.2727C12.84 22.0527 12.36 21.7127 11.83 21.2627C11.35 20.8527 10.83 20.3727 10.2 19.7527C9.71 19.2527 9.22 18.7227 8.71 18.1327C8.24 17.5827 7.9 17.1127 7.69 16.7227L7.57 16.4227C7.51 16.1927 7.49 16.0627 7.49 15.9227C7.49 15.5627 7.62 15.2427 7.87 14.9927L8.62 14.2127C8.82 14.0127 8.97 13.8227 9.07 13.6527C9.15 13.5227 9.18 13.4127 9.18 13.3127C9.18 13.2327 9.15 13.1127 9.1 12.9927C9.03 12.8327 8.92 12.6527 8.78 12.4627L6.46 9.1827C6.36 9.0427 6.24 8.9427 6.09 8.8727C5.93 8.8027 5.76 8.7627 5.59 8.7627ZM13.95 21.0227L13.79 21.7027L14.06 21.0027C14.01 20.9927 13.97 21.0027 13.95 21.0227Z" fill="#848484"/>
</svg>
