<svg width="24" height="25" viewBox="0 0 24 25" fill="none" xmlns="http://www.w3.org/2000/svg">
<path d="M12.1596 12.3016C12.1296 12.3016 12.1096 12.3016 12.0796 12.3016C12.0296 12.2916 11.9596 12.2916 11.8996 12.3016C8.99957 12.2116 6.80957 9.93164 6.80957 7.12164C6.80957 4.26164 9.13957 1.93164 11.9996 1.93164C14.8596 1.93164 17.1896 4.26164 17.1896 7.12164C17.1796 9.93164 14.9796 12.2116 12.1896 12.3016C12.1796 12.3016 12.1696 12.3016 12.1596 12.3016ZM11.9996 3.43164C9.96957 3.43164 8.30957 5.09164 8.30957 7.12164C8.30957 9.12164 9.86957 10.7316 11.8596 10.8016C11.9096 10.7916 12.0496 10.7916 12.1796 10.8016C14.1396 10.7116 15.6796 9.10164 15.6896 7.12164C15.6896 5.09164 14.0296 3.43164 11.9996 3.43164Z" fill="#757575"/>
<path d="M12.1696 23.2316C10.2096 23.2316 8.23961 22.7316 6.74961 21.7316C5.35961 20.8116 4.59961 19.5516 4.59961 18.1816C4.59961 16.8116 5.35961 15.5416 6.74961 14.6116C9.74961 12.6216 14.6096 12.6216 17.5896 14.6116C18.9696 15.5316 19.7396 16.7916 19.7396 18.1616C19.7396 19.5316 18.9796 20.8016 17.5896 21.7316C16.0896 22.7316 14.1296 23.2316 12.1696 23.2316ZM7.57961 15.8716C6.61961 16.5116 6.09961 17.3316 6.09961 18.1916C6.09961 19.0416 6.62961 19.8616 7.57961 20.4916C10.0696 22.1616 14.2696 22.1616 16.7596 20.4916C17.7196 19.8516 18.2396 19.0316 18.2396 18.1716C18.2396 17.3216 17.7096 16.5016 16.7596 15.8716C14.2696 14.2116 10.0696 14.2116 7.57961 15.8716Z" fill="#757575"/>
</svg>
